<?xml version="1.0" standalone="no"?>
<!DOCTYPE svg PUBLIC "-//W3C//DTD SVG 1.1//EN" "http://www.w3.org/Graphics/SVG/1.1/DTD/svg11.dtd">
<svg width="242" height="282.86018001858923" version="1.1" xmlns="http://www.w3.org/2000/svg">
  <title>Hexagonal sigma maze with 6 cells side</title>
  <desc>Hexagonal sigma maze with 6 cells side generated by The Maze Generator Website (https://www.mazegenerator.net/).</desc>
  <g fill="none" stroke="#000000" stroke-width="2" stroke-linecap="round" stroke-linejoin="round">
    <polyline points="86,26.248711305964278 93,14.124355652982137 107,14.124355652982137 114,1.9999999999999965" />
    <polyline points="128,1.9999999999999965 135,14.124355652982137 149,14.124355652982137 156,26.248711305964278" />
    <polyline points="44,50.497422611928556 51,38.373066958946417 65,38.373066958946417 72,26.248711305964278 86,26.248711305964278" />
    <polyline points="86,50.497422611928556 93,38.373066958946417 107,38.373066958946417 114,26.248711305964278 128,26.248711305964278" />
    <polyline points="128,50.497422611928556 135,38.373066958946417 149,38.373066958946417 156,50.497422611928556" />
    <polyline points="149,38.373066958946417 156,26.248711305964278 170,26.248711305964278 177,38.373066958946417 170,50.497422611928556" />
    <polyline points="177,38.373066958946417 191,38.373066958946417 198,50.497422611928556" />
    <polyline points="9,86.870489570875 2,74.746133917892848 9,62.621778264910709 23,62.621778264910709 30,50.49742261192857 44,50.49742261192857 51,62.621778264910709 44,74.746133917892848" />
    <polyline points="51,62.621778264910709 65,62.621778264910709 72,74.746133917892848" />
    <polyline points="72,50.49742261192857 86,50.49742261192857 93,62.621778264910709 107,62.621778264910709 114,74.746133917892848" />
    <polyline points="114,50.49742261192857 128,50.49742261192857 135,62.621778264910709 128,74.746133917892848" />
    <line x1="149" y1="62.621778264910709" x2="156" y2="74.746133917892848" />
    <polyline points="170,50.49742261192857 177,62.621778264910709 170,74.746133917892848" />
    <line x1="191" y1="62.621778264910709" x2="198" y2="74.746133917892848" />
    <polyline points="198,50.49742261192857 212,50.49742261192857 219,62.621778264910709 233,62.621778264910709 240,74.746133917892848 233,86.870489570875" />
    <polyline points="9,111.11920087683927 2,98.994845223857126 9,86.87048957087498" />
    <line x1="23" y1="86.87048957087498" x2="30" y2="98.994845223857126" />
    <line x1="30" y1="74.746133917892834" x2="44" y2="74.746133917892834" />
    <line x1="44" y1="98.994845223857126" x2="51" y2="86.87048957087498" />
    <polyline points="72,98.994845223857126 65,86.87048957087498 72,74.746133917892834" />
    <polyline points="86,74.746133917892834 93,86.87048957087498 107,86.87048957087498 114,98.994845223857126" />
    <line x1="107" y1="86.87048957087498" x2="114" y2="74.746133917892834" />
    <polyline points="135,86.87048957087498 149,86.87048957087498 156,74.746133917892834 170,74.746133917892834" />
    <polyline points="170,98.994845223857126 177,86.87048957087498 191,86.87048957087498 198,98.994845223857126" />
    <polyline points="198,74.746133917892834 212,74.746133917892834 219,86.87048957087498 212,98.994845223857126" />
    <polyline points="233,86.87048957087498 240,98.994845223857126 233,111.11920087683927" />
    <polyline points="9,135.36791218280354 2,123.2435565298214 9,111.11920087683926 23,111.11920087683926 30,123.2435565298214" />
    <polyline points="30,98.994845223857112 44,98.994845223857112 51,111.11920087683926 44,123.2435565298214" />
    <polyline points="65,111.11920087683926 72,98.994845223857112 86,98.994845223857112" />
    <polyline points="86,123.2435565298214 93,111.11920087683926 107,111.11920087683926 114,123.2435565298214" />
    <line x1="107" y1="111.11920087683926" x2="114" y2="98.994845223857112" />
    <polyline points="128,98.994845223857112 135,111.11920087683926 149,111.11920087683926 156,123.2435565298214" />
    <polyline points="149,111.11920087683926 156,98.994845223857112 170,98.994845223857112" />
    <polyline points="177,111.11920087683926 191,111.11920087683926 198,123.2435565298214" />
    <polyline points="198,98.994845223857112 212,98.994845223857112 219,111.11920087683926 212,123.2435565298214" />
    <polyline points="233,111.11920087683926 240,123.2435565298214 233,135.36791218280354" />
    <polyline points="9,159.61662348876783 2,147.4922678357857 9,135.36791218280357" />
    <polyline points="30,147.4922678357857 23,135.36791218280357 30,123.24355652982142" />
    <polyline points="44,123.24355652982142 51,135.36791218280357 65,135.36791218280357 72,147.4922678357857" />
    <polyline points="65,135.36791218280357 72,123.24355652982142 86,123.24355652982142" />
    <line x1="86" y1="147.4922678357857" x2="93" y2="135.36791218280357" />
    <polyline points="114,147.4922678357857 107,135.36791218280357 114,123.24355652982142 128,123.24355652982142" />
    <polyline points="135,135.36791218280357 149,135.36791218280357 156,147.4922678357857" />
    <polyline points="149,135.36791218280357 156,123.24355652982142 170,123.24355652982142" />
    <polyline points="170,147.4922678357857 177,135.36791218280357 191,135.36791218280357 198,147.4922678357857" />
    <line x1="191" y1="135.36791218280357" x2="198" y2="123.24355652982142" />
    <polyline points="212,123.24355652982142 219,135.36791218280357 233,135.36791218280357 240,147.4922678357857 233,159.61662348876783" />
    <polyline points="9,183.86533479473209 2,171.74097914174996 9,159.61662348876783 23,159.61662348876783" />
    <line x1="30" y1="147.4922678357857" x2="44" y2="147.4922678357857" />
    <polyline points="44,171.74097914174996 51,159.61662348876783 65,159.61662348876783 72,147.4922678357857 86,147.4922678357857" />
    <polyline points="86,171.74097914174996 93,159.61662348876783 107,159.61662348876783 114,171.74097914174996" />
    <polyline points="107,159.61662348876783 114,147.4922678357857 128,147.4922678357857" />
    <line x1="128" y1="171.74097914174996" x2="135" y2="159.61662348876783" />
    <line x1="149" y1="159.61662348876783" x2="156" y2="147.4922678357857" />
    <polyline points="170,147.4922678357857 177,159.61662348876783 170,171.74097914174996" />
    <line x1="191" y1="159.61662348876783" x2="198" y2="171.74097914174996" />
    <polyline points="198,147.4922678357857 212,147.4922678357857 219,159.61662348876783 212,171.74097914174996" />
    <polyline points="233,159.61662348876783 240,171.74097914174996 233,183.86533479473209" />
    <polyline points="9,208.11404610069636 2,195.98969044771422 9,183.86533479473209 23,183.86533479473209 30,195.98969044771422" />
    <polyline points="30,171.74097914174996 44,171.74097914174996 51,183.86533479473209 65,183.86533479473209 72,195.98969044771422" />
    <line x1="65" y1="183.86533479473209" x2="72" y2="171.74097914174996" />
    <line x1="86" y1="195.98969044771422" x2="93" y2="183.86533479473209" />
    <line x1="107" y1="183.86533479473209" x2="114" y2="171.74097914174996" />
    <polyline points="128,171.74097914174996 135,183.86533479473209 128,195.98969044771422" />
    <polyline points="135,183.86533479473209 149,183.86533479473209 156,171.74097914174996 170,171.74097914174996 177,183.86533479473209 170,195.98969044771422" />
    <polyline points="198,195.98969044771422 191,183.86533479473209 198,171.74097914174996" />
    <polyline points="219,183.86533479473209 233,183.86533479473209 240,195.98969044771422 233,208.11404610069636" />
    <polyline points="9,208.11404610069641 23,208.11404610069641 30,220.23840175367855" />
    <polyline points="30,195.98969044771428 44,195.98969044771428 51,208.11404610069641" />
    <line x1="65" y1="208.11404610069641" x2="72" y2="220.23840175367855" />
    <polyline points="72,195.98969044771428 86,195.98969044771428 93,208.11404610069641 107,208.11404610069641 114,220.23840175367855" />
    <polyline points="107,208.11404610069641 114,195.98969044771428 128,195.98969044771428 135,208.11404610069641" />
    <polyline points="156,220.23840175367855 149,208.11404610069641 156,195.98969044771428" />
    <polyline points="170,195.98969044771428 177,208.11404610069641 170,220.23840175367855" />
    <polyline points="198,220.23840175367855 191,208.11404610069641 198,195.98969044771428 212,195.98969044771428" />
    <polyline points="212,220.23840175367855 219,208.11404610069641 233,208.11404610069641" />
    <polyline points="30,220.23840175367855 44,220.23840175367855 51,232.36275740666068 65,232.36275740666068 72,244.48711305964281" />
    <polyline points="65,232.36275740666068 72,220.23840175367855 86,220.23840175367855" />
    <polyline points="93,232.36275740666068 107,232.36275740666068 114,244.48711305964281" />
    <line x1="107" y1="232.36275740666068" x2="114" y2="220.23840175367855" />
    <polyline points="128,220.23840175367855 135,232.36275740666068 128,244.48711305964281" />
    <polyline points="135,232.36275740666068 149,232.36275740666068 156,220.23840175367855" />
    <polyline points="170,244.48711305964281 177,232.36275740666068 191,232.36275740666068 198,220.23840175367855 212,220.23840175367855" />
    <polyline points="72,244.48711305964278 86,244.48711305964278 93,256.61146871262491 107,256.61146871262491 114,268.73582436560707" />
    <line x1="107" y1="256.61146871262491" x2="114" y2="244.48711305964278" />
    <polyline points="128,244.48711305964278 135,256.61146871262491 128,268.73582436560707" />
    <polyline points="135,256.61146871262491 149,256.61146871262491 156,244.48711305964278 170,244.48711305964278" />
  </g>
</svg>
